<?xml version="1.0" encoding="iso-8859-1"?>
<!-- Generator: Adobe Illustrator 19.0.0, SVG Export Plug-In . SVG Version: 6.00 Build 0)  -->
<svg version="1.1" id="Capa_1" xmlns="http://www.w3.org/2000/svg" xmlns:xlink="http://www.w3.org/1999/xlink" x="0px" y="0px"
	 viewBox="0 0 62 62" style="enable-background:new 0 0 62 62;" xml:space="preserve">
<polygon style="fill:#D7DCE0;" points="41,51 41,39 37,39 37,51 35,51 35,58 43,58 43,51 "/>
<polygon style="fill:#ECF0F1;" points="49,51 49,39 45,39 45,51 43,51 43,58 51,58 51,51 "/>
<polygon style="fill:#D7DCE0;" points="53,39 53,51 51,51 51,58 59,58 59,39 "/>
<polygon style="fill:#D7DCE0;" points="9,39 3,39 3,51 3,58 11,58 11,51 9,51 "/>
<polygon style="fill:#ECF0F1;" points="33,51 33,39 29,39 29,51 27,51 27,58 35,58 35,51 "/>
<polygon style="fill:#D7DCE0;" points="25,51 25,39 21,39 21,51 19,51 19,58 27,58 27,51 "/>
<polygon style="fill:#ECF0F1;" points="17,51 17,39 13,39 13,51 11,51 11,58 19,58 19,51 "/>
<g>
	<rect x="32" y="38" style="fill:#464F5D;" width="6" height="13"/>
	<rect x="24" y="38" style="fill:#464F5D;" width="6" height="13"/>
	<rect x="40" y="38" style="fill:#464F5D;" width="6" height="13"/>
	<rect x="48" y="38" style="fill:#464F5D;" width="6" height="13"/>
	<rect x="8" y="38" style="fill:#464F5D;" width="6" height="13"/>
	<rect x="16" y="38" style="fill:#464F5D;" width="6" height="13"/>
</g>
<path style="fill:#556080;" d="M52.974,27.823C47.222,27.074,41,24.643,41,15v-0.5C41,6.525,34.475,0,26.5,0h-9
	C9.525,0,3,6.525,3,14.5V39h56v-4.376C59,31.158,56.411,28.271,52.974,27.823z"/>
<rect x="11" y="58" style="fill:#BFCAD1;" width="8" height="4"/>
<rect x="3" y="58" style="fill:#ACB7C1;" width="8" height="4"/>
<rect x="27" y="58" style="fill:#BFCAD1;" width="8" height="4"/>
<rect x="19" y="58" style="fill:#ACB7C1;" width="8" height="4"/>
<rect x="43" y="58" style="fill:#BFCAD1;" width="8" height="4"/>
<rect x="35" y="58" style="fill:#ACB7C1;" width="8" height="4"/>
<rect x="51" y="58" style="fill:#ACB7C1;" width="8" height="4"/>
<rect x="8" y="48" style="fill:#2C2F38;" width="6" height="3"/>
<rect x="16" y="48" style="fill:#2C2F38;" width="6" height="3"/>
<rect x="24" y="48" style="fill:#2C2F38;" width="6" height="3"/>
<rect x="32" y="48" style="fill:#2C2F38;" width="6" height="3"/>
<rect x="40" y="48" style="fill:#2C2F38;" width="6" height="3"/>
<rect x="48" y="48" style="fill:#2C2F38;" width="6" height="3"/>
<rect x="3" y="35" style="fill:#2C2F38;" width="56" height="4"/>
<g>
</g>
<g>
</g>
<g>
</g>
<g>
</g>
<g>
</g>
<g>
</g>
<g>
</g>
<g>
</g>
<g>
</g>
<g>
</g>
<g>
</g>
<g>
</g>
<g>
</g>
<g>
</g>
<g>
</g>
</svg>
